<svg width="38" height="29" viewBox="0 0 38 29" fill="none" xmlns="http://www.w3.org/2000/svg">
<path d="M14.4468 1.5217C14.4468 0.78612 15.2054 0.194336 16.1483 0.194336H21.82C22.7629 0.194336 23.5215 0.78612 23.5215 1.5217C23.5215 2.25728 22.7629 2.84907 21.82 2.84907H21.6643C21.1238 2.84907 20.6857 3.2872 20.6857 3.82767C20.6857 4.32793 21.0638 4.74425 21.5574 4.82516C23.1254 5.08214 24.5825 5.56823 25.8716 6.2345C26.2692 6.43999 26.7527 6.41298 27.1061 6.13841L27.4027 5.908C27.8119 5.59014 27.8139 4.97251 27.4067 4.65207C26.7403 4.13219 26.7403 3.29152 27.4067 2.77717C28.0731 2.26281 29.1507 2.25728 29.8101 2.77717L33.8228 5.90754C34.4893 6.42742 34.4893 7.26809 33.8228 7.78244C33.1564 8.2968 32.0788 8.30233 31.4194 7.78244L31.3053 7.69421C30.8969 7.37842 30.3264 7.37964 29.9194 7.69717C29.3884 8.11141 29.3416 8.8924 29.7467 9.43042C30.336 10.2131 30.7877 11.0662 31.0788 11.9682C31.2724 12.5683 31.8012 13.0255 32.4318 13.0255H32.8458C33.3345 13.0255 33.7307 12.6294 33.7307 12.1406C33.7307 11.405 34.4893 10.8133 35.4322 10.8133C36.3751 10.8133 37.1337 11.405 37.1337 12.1406V16.5652C37.1337 17.3008 36.3751 17.8925 35.4322 17.8925C34.4893 17.8925 33.7307 17.3008 33.7307 16.5652C33.7307 16.0765 33.3345 15.6803 32.8458 15.6803H32.436C31.8072 15.6803 31.28 16.1365 31.0867 16.7348C30.7939 17.6416 30.3383 18.4968 29.7468 19.2814C29.3437 19.8162 29.3905 20.592 29.9177 21.005C30.3252 21.3242 30.8977 21.3248 31.3059 21.0064L31.4124 20.9234C32.0788 20.4035 33.1564 20.4035 33.8158 20.9234C34.4751 21.4432 34.4822 22.2839 33.8158 22.7983L29.803 25.9286C29.1366 26.4485 28.0589 26.4485 27.3996 25.9286C26.7403 25.4088 26.7332 24.5681 27.3996 24.0537C27.81 23.7336 27.81 23.1129 27.3996 22.7927L27.1071 22.5645C26.7533 22.2886 26.2685 22.2617 25.8701 22.468C24.5814 23.1355 23.1229 23.6184 21.5599 23.8746C21.0648 23.9558 20.6857 24.3734 20.6857 24.8751C20.6857 25.4172 21.1252 25.8567 21.6673 25.8567H21.82C22.7629 25.8567 23.5215 26.4485 23.5215 27.1841C23.5215 27.9197 22.7629 28.5115 21.82 28.5115H16.1483C15.2054 28.5115 14.4468 27.9197 14.4468 27.1841C14.4468 26.4485 15.2054 25.8567 16.1483 25.8567H16.304C16.8445 25.8567 17.2826 25.4186 17.2826 24.8781C17.2826 24.3779 16.9045 23.9616 16.4109 23.8806C14.8421 23.6235 13.3844 23.1371 12.0948 22.4703C11.6984 22.2654 11.2163 22.2923 10.8639 22.5661L10.5629 22.7999C10.1558 23.1162 10.1551 23.7311 10.5616 24.0482C11.228 24.5681 11.228 25.4088 10.5616 25.9231C9.89519 26.4375 8.81756 26.443 8.15822 25.9231L4.14546 22.7983C3.47903 22.2784 3.47903 21.4377 4.14546 20.9234C4.81189 20.409 5.88952 20.4035 6.54886 20.9234L6.66296 21.0116C7.07135 21.3274 7.64187 21.3262 8.04891 21.0086C8.57992 20.5944 8.6267 19.8135 8.22067 19.2762C7.62881 18.4929 7.17402 17.6395 6.88165 16.7348C6.6883 16.1365 6.16111 15.6803 5.53234 15.6803H5.12253C4.63381 15.6803 4.23762 16.0765 4.23762 16.5652C4.23762 17.3008 3.47903 17.8925 2.5361 17.8925C1.59317 17.8925 0.834579 17.3008 0.834579 16.5652V12.1406C0.834579 11.405 1.59317 10.8133 2.5361 10.8133C3.47903 10.8133 4.23762 11.405 4.23762 12.1406C4.23762 12.6294 4.63381 13.0255 5.12253 13.0255H5.53234C6.16111 13.0255 6.68834 12.5693 6.88158 11.971C7.17421 11.0649 7.62928 10.2103 8.2201 9.42618C8.62381 8.89036 8.57696 8.11312 8.04884 7.6994C7.64202 7.38069 7.07074 7.37889 6.66192 7.69502L6.54886 7.78244C5.88243 8.30233 4.8048 8.30233 4.14546 7.78244C3.48612 7.26256 3.47903 6.42189 4.14546 5.90754L8.15822 2.77717C8.82465 2.25728 9.90228 2.25728 10.5616 2.77717C11.221 3.29705 11.228 4.13772 10.5616 4.65207C10.1541 4.97277 10.1554 5.59068 10.5643 5.90964L10.8595 6.13995C11.2143 6.41669 11.7005 6.44369 12.1001 6.23682C13.3883 5.56982 14.8462 5.08726 16.4084 4.83118C16.9035 4.75002 17.2826 4.33245 17.2826 3.83074C17.2826 3.28858 16.8431 2.84907 16.301 2.84907H16.1483C15.2054 2.84907 14.4468 2.25728 14.4468 1.5217ZM17.8498 12.5831C17.8498 11.1174 16.3255 9.92835 14.4468 9.92835C12.568 9.92835 11.0437 11.1174 11.0437 12.5831C11.0437 14.0487 12.568 15.2378 14.4468 15.2378C16.3255 15.2378 17.8498 14.0487 17.8498 12.5831ZM22.3872 18.335C23.3301 18.335 24.0887 17.7432 24.0887 17.0076C24.0887 16.2721 23.3301 15.6803 22.3872 15.6803C21.4443 15.6803 20.6857 16.2721 20.6857 17.0076C20.6857 17.7432 21.4443 18.335 22.3872 18.335Z" fill="#FE9063"/>
</svg>
