<svg width="17" height="25" viewBox="0 0 17 25" fill="none" xmlns="http://www.w3.org/2000/svg">
<path d="M1.94078 2.45749C1.94078 1.63152 2.53547 0.964203 3.27155 0.964203H13.9177C14.6538 0.964203 15.2485 1.63152 15.2485 2.45749C15.2485 3.28346 14.6538 3.95078 13.9177 3.95078H12.6909L13.165 10.8666C14.6912 11.7952 15.8972 13.3491 16.4711 15.2858L16.5127 15.4257C16.6499 15.8831 16.5792 16.3824 16.3297 16.7697C16.0802 17.157 15.6768 17.3904 15.2485 17.3904H1.94078C1.51244 17.3904 1.11321 17.1617 0.85953 16.7697C0.605852 16.3777 0.539314 15.8784 0.676549 15.4257L0.718136 15.2858C1.29203 13.3491 2.49804 11.7952 4.02427 10.8666L4.49835 3.95078H3.27155C2.53547 3.95078 1.94078 3.28346 1.94078 2.45749ZM7.26386 18.8836H9.9254V23.3635C9.9254 24.1895 9.33071 24.8568 8.59463 24.8568C7.85854 24.8568 7.26386 24.1895 7.26386 23.3635V18.8836Z" fill="#FE9063"/>
</svg>
